<svg width="80" height="80" viewBox="0 0 80 80" fill="none" xmlns="http://www.w3.org/2000/svg">
    <path d="M39.9195 80H40.0805C62.1328 80 80 62.1774 80 40C80 17.8226 62.2133 0 40.0805 0H39.9195C17.7867 0 0 17.8226 0 40C0 62.1774 17.8672 80 39.9195 80Z" fill="#00FFFF"/>
    <path d="M39.9629 75.8969H40.0434C62.4176 75.8969 77.7093 61.2194 77.7093 41.4614C77.7093 21.7033 60.9689 2.50977 40.0434 2.50977H39.9629C19.0373 2.50977 2.29688 20.8162 2.29688 41.4614C2.29688 62.1065 17.5886 75.8969 39.9629 75.8969Z" fill="#00EDED"/>
    <path d="M41.61 71.8334C66.2378 71.8334 75.4128 58.4463 75.4128 42.8011C75.4128 21.3495 58.109 4.97852 40.0004 4.97852C21.8917 4.97852 4.58789 21.3495 4.58789 42.8011C4.58789 58.4463 13.7629 71.8334 38.3907 71.8334H41.61Z" fill="#00DCDC"/>
    <path d="M46.1964 67.7292H33.802C12.796 67.7292 6.75977 56.4389 6.75977 44.5034C6.75977 25.7938 22.5344 7.4873 39.9187 7.4873H40.0797C57.464 7.4873 73.2386 25.7938 73.2386 44.5034C73.2386 56.4389 67.2024 67.7292 46.1964 67.7292Z" fill="#00CACA"/>
    <path d="M24.9477 63.936C30.0986 63.936 34.8471 63.6134 39.9176 63.6134H40.0785C45.1489 63.6134 49.8974 63.936 55.0483 63.936C65.5111 63.936 71.0644 55.3876 71.0644 44.8231C71.0644 29.5005 55.4508 9.98438 40.0785 9.98438H39.9176C24.5453 9.98438 8.93164 29.5005 8.93164 44.8231C8.93164 55.3876 14.485 63.936 24.9477 63.936Z" fill="#00B8B8"/>
    <path d="M23.5823 61.2718C28.0088 61.2718 32.9183 59.5782 39.9203 59.5782H40.0813C47.0833 59.5782 51.9927 61.2718 56.4193 61.2718C64.87 61.2718 68.8941 54.3363 68.8941 46.3524C68.8941 38.3685 64.3066 29.6589 59.3972 24.0137C54.8096 18.6911 48.4515 12.4814 40.0813 12.4814H39.9203C31.5501 12.4814 25.1919 18.6911 20.6044 24.0137C15.6949 29.6589 11.1074 38.046 11.1074 46.3524C11.1074 54.6589 15.1316 61.2718 23.5823 61.2718Z" fill="#00A6A6"/>
    <path d="M22.0523 58.8569C27.1228 58.8569 32.4346 55.3085 39.9195 55.3085H40.0805C47.5654 55.3085 52.8773 58.8569 57.9477 58.8569C63.4205 58.8569 66.8008 53.5343 66.8008 47.1633C66.8008 39.5827 61.8109 30.9537 56.8209 25.3085C51.5896 19.4214 46.6801 14.9053 40.0805 14.9053H39.9195C33.3199 14.9053 28.4105 19.4214 23.1791 25.3085C18.1892 30.9537 13.1992 39.5827 13.1992 47.1633C13.1992 53.5343 16.5795 58.8569 22.0523 58.8569Z" fill="#009494"/>
    <path d="M22.091 56.8304C26.7591 56.8304 31.9904 51.3465 39.7168 51.3465H40.2802C48.0065 51.3465 53.2379 56.8304 57.9059 56.8304C62.0106 56.8304 64.747 52.7175 64.747 48.2014C64.747 42.153 59.918 34.0078 56.0548 29.2498C51.7892 23.9272 46.3969 17.4756 40.2802 17.4756H39.7168C33.6001 17.4756 28.2077 23.9272 23.9422 29.2498C20.079 34.0078 15.25 42.153 15.25 48.2014C15.25 52.7175 17.9864 56.8304 22.091 56.8304Z" fill="#008383"/>
    <path d="M39.6774 47.2943C35.4923 47.2943 31.8705 49.7943 28.4903 51.9717C25.4319 53.9072 23.9027 54.7943 22.2126 54.7943C19.3957 54.7943 17.2227 52.3749 17.2227 48.9072C17.2227 43.1007 23.5003 34.633 27.0416 30.0362C30.3414 25.762 34.446 19.9556 39.7579 19.9556H40.2408C45.5526 19.9556 49.6573 25.762 52.9571 30.0362C56.4983 34.633 62.776 43.1007 62.776 48.9072C62.776 52.3749 60.6029 54.7943 57.786 54.7943C56.0959 54.7943 54.5667 53.9072 51.5084 51.9717C48.1281 49.7943 44.5064 47.2943 40.3212 47.2943H39.6774Z" fill="#007171"/>
    <path d="M39.9998 22.4707C36.378 22.4707 34.6074 24.6481 31.4686 28.8417C27.6054 34.0836 23.7422 39.8094 21.2473 43.6804C19.4766 46.503 19.0742 47.8739 19.0742 49.003C19.0742 51.3417 20.6839 52.7933 22.7764 52.7933C24.6275 52.7933 25.9957 51.6643 28.6517 49.4868C32.2734 46.4223 35.7342 43.1965 39.9998 43.1965C44.2654 43.1965 47.7261 46.4223 51.3479 49.4868C54.0038 51.6643 55.372 52.7933 57.2231 52.7933C59.3157 52.7933 60.9253 51.3417 60.9253 49.003C60.9253 47.8739 60.5229 46.503 58.7523 43.6804C56.2573 39.8094 52.3941 34.0836 48.531 28.8417C45.3921 24.6481 43.6215 22.4707 39.9998 22.4707Z" fill="black"/>
</svg>
