<svg width="303" height="80" viewBox="0 0 303 80" fill="none" xmlns="http://www.w3.org/2000/svg">
<path d="M40 80H40.1613C62.2581 80 80.1613 62.1774 80.1613 40C80.1613 17.8226 62.3387 0 40.1613 0H40C17.8226 0 0 17.8226 0 40C0 62.1774 17.9032 80 40 80Z" fill="#00FFFF"/>
<path d="M40.0398 75.8969H40.1204C62.5398 75.8969 77.8624 61.2194 77.8624 41.4614C77.8624 21.7033 61.0882 2.50977 40.1204 2.50977H40.0398C19.072 2.50977 2.29785 20.8162 2.29785 41.4614C2.29785 62.1065 17.6204 75.8969 40.0398 75.8969Z" fill="#00EDED"/>
<path d="M41.6937 71.8331C66.3711 71.8331 75.5647 58.446 75.5647 42.8008C75.5647 21.3492 58.2259 4.97827 40.0808 4.97827C21.9356 4.97827 4.59692 21.3492 4.59692 42.8008C4.59692 58.446 13.7905 71.8331 38.4679 71.8331H41.6937Z" fill="#00DCDC"/>
<path d="M46.2908 67.729H33.8714C12.823 67.729 6.77466 56.4387 6.77466 44.5032C6.77466 25.7935 22.5811 7.48706 40.0005 7.48706H40.1618C57.5811 7.48706 73.3876 25.7935 73.3876 44.5032C73.3876 56.4387 67.3392 67.729 46.2908 67.729Z" fill="#00CACA"/>
<path d="M24.9996 63.9362C30.1608 63.9362 34.9189 63.6137 39.9996 63.6137H40.1608C45.2415 63.6137 49.9996 63.9362 55.1608 63.9362C65.6447 63.9362 71.2092 55.3878 71.2092 44.8233C71.2092 29.5007 55.5641 9.98462 40.1608 9.98462H39.9996C24.5963 9.98462 8.95117 29.5007 8.95117 44.8233C8.95117 55.3878 14.5157 63.9362 24.9996 63.9362Z" fill="#00B8B8"/>
<path d="M23.6289 61.2718C28.0644 61.2718 32.9837 59.5782 39.9999 59.5782H40.1612C47.1773 59.5782 52.0966 61.2718 56.5321 61.2718C64.9999 61.2718 69.0321 54.3363 69.0321 46.3524C69.0321 38.3685 64.4354 29.6589 59.516 24.0137C54.9192 18.6911 48.5483 12.4814 40.1612 12.4814H39.9999C31.6128 12.4814 25.2418 18.6911 20.645 24.0137C15.7257 29.6589 11.1289 38.046 11.1289 46.3524C11.1289 54.6589 15.1612 61.2718 23.6289 61.2718Z" fill="#00A6A6"/>
<path d="M22.0973 58.8566C27.1779 58.8566 32.5005 55.3083 40.0005 55.3083H40.1618C47.6618 55.3083 52.9844 58.8566 58.065 58.8566C63.5489 58.8566 66.936 53.5341 66.936 47.1631C66.936 39.5824 61.936 30.9534 56.936 25.3083C51.6941 19.4212 46.7747 14.905 40.1618 14.905H40.0005C33.3876 14.905 28.4683 19.4212 23.2263 25.3083C18.2263 30.9534 13.2263 39.5824 13.2263 47.1631C13.2263 53.5341 16.6134 58.8566 22.0973 58.8566Z" fill="#009494"/>
<path d="M22.1373 56.8307C26.8147 56.8307 32.0567 51.3468 39.7986 51.3468H40.3631C48.1051 51.3468 53.347 56.8307 58.0244 56.8307C62.1373 56.8307 64.8792 52.7178 64.8792 48.2016C64.8792 42.1532 60.0405 34.0081 56.1696 29.25C51.8954 23.9274 46.4921 17.4758 40.3631 17.4758H39.7986C33.6696 17.4758 28.2663 23.9274 23.9921 29.25C20.1212 34.0081 15.2825 42.1532 15.2825 48.2016C15.2825 52.7178 18.0244 56.8307 22.1373 56.8307Z" fill="#008383"/>
<path d="M39.7583 47.2943C35.5648 47.2943 31.9357 49.7943 28.5486 51.9717C25.4841 53.9072 23.9518 54.7943 22.2583 54.7943C19.4357 54.7943 17.2583 52.3749 17.2583 48.9072C17.2583 43.1007 23.5486 34.633 27.097 30.0362C30.4035 25.762 34.5164 19.9556 39.8389 19.9556H40.3228C45.6454 19.9556 49.7583 25.762 53.0647 30.0362C56.6131 34.633 62.9035 43.1007 62.9035 48.9072C62.9035 52.3749 60.726 54.7943 57.9035 54.7943C56.2099 54.7943 54.6777 53.9072 51.6131 51.9717C48.226 49.7943 44.597 47.2943 40.4035 47.2943H39.7583Z" fill="#007171"/>
<path d="M40.0808 22.4709C36.4517 22.4709 34.6776 24.6484 31.5324 28.8419C27.6614 34.0838 23.7905 39.8097 21.2905 43.6806C19.5163 46.5032 19.113 47.8742 19.113 49.0032C19.113 51.3419 20.7259 52.7935 22.8227 52.7935C24.6776 52.7935 26.0485 51.6645 28.7098 49.4871C32.3388 46.4226 35.8066 43.1968 40.0808 43.1968C44.355 43.1968 47.8227 46.4226 51.4517 49.4871C54.113 51.6645 55.484 52.7935 57.3388 52.7935C59.4356 52.7935 61.0485 51.3419 61.0485 49.0032C61.0485 47.8742 60.6453 46.5032 58.8711 43.6806C56.3711 39.8097 52.5001 34.0838 48.6292 28.8419C45.484 24.6484 43.7098 22.4709 40.0808 22.4709Z" fill="black"/>
<path d="M126.705 25.3472C125.591 23.7016 124.347 23.1235 122.478 23.1235H114.242C112.373 23.1235 111.128 23.7016 110.014 25.3472L91.7195 52.4132H98.8415L101.955 47.9157C102.711 46.8019 103.559 46.2239 105.027 46.2239H131.688C133.157 46.2239 134.005 46.8019 134.76 47.9157L137.874 52.4132H144.996L126.705 25.3472ZM113.398 30.6425C114.064 29.6174 114.866 28.7734 116.512 28.7734H120.208C121.853 28.7734 122.612 29.6174 123.322 30.6425L129.873 40.3004H106.842L113.394 30.6425H113.398Z" fill="white"/>
<path d="M200.754 39.148V36.3886C200.754 32.5616 200.4 31.0471 204.269 29.8909C207.919 28.8234 215.218 28.4649 217.669 28.4649C220.12 28.4649 227.415 28.8195 231.065 29.8909C234.938 31.0471 234.58 32.5616 234.58 36.3886V39.148C234.58 42.9749 234.934 44.4895 231.065 45.6457C227.415 46.7132 220.116 47.0716 217.669 47.0716C215.222 47.0716 207.919 46.7171 204.269 45.6457C200.396 44.4895 200.754 42.9749 200.754 39.148ZM194.657 32.4268V43.1098C194.657 47.2489 195.147 49.2067 199.463 50.8985C203.248 52.3669 210.547 53.392 217.669 53.392C224.791 53.392 232.09 52.3669 235.875 50.8985C240.191 49.2067 240.681 47.2489 240.681 43.1098V32.4268C240.681 28.2877 240.191 26.3299 235.875 24.638C232.09 23.1697 224.791 22.1445 217.669 22.1445C210.547 22.1445 203.248 23.1697 199.463 24.638C195.147 26.3299 194.657 28.2877 194.657 32.4268Z" fill="white"/>
<path d="M161.386 52.413H167.352V31.047C167.352 29.3551 168.065 28.777 169.669 28.777H188.499L186.764 25.1736C186.009 23.5704 184.938 23.1272 183.157 23.1272H145.589C143.809 23.1272 142.741 23.5704 141.982 25.1736L140.248 28.777H159.078C160.681 28.777 161.394 29.3551 161.394 31.047V52.413H161.386Z" fill="white"/>
<path d="M274.9 42.7553H278.017C280.11 42.7553 281.043 42.0886 281.844 41.0172L293.059 25.8367C294.528 23.8327 295.506 23.1235 297.911 23.1235H302.139V52.4132H296.173V31.1358L284.735 46.9368C283.532 48.5824 282.153 49.253 280.237 49.253H272.761C270.845 49.253 269.423 48.5863 268.221 46.9368L256.736 31.1782V52.4094H250.77V23.1235H254.998C257.403 23.1235 258.424 23.9251 259.85 25.8367L271.069 41.0172C271.87 42.0848 272.803 42.7553 274.896 42.7553H274.9Z" fill="white"/>
<path d="M59.7475 45.1446C56.4138 39.8724 52.5483 34.1648 48.6405 28.9003C45.5188 24.6957 43.9541 22.5144 40.1156 22.5144H40.0424C36.2039 22.5144 34.6393 24.6919 31.5176 28.9003C27.6136 34.1648 23.7442 39.8724 20.4106 45.1446C19.3161 46.875 17.894 50.4514 20.7767 52.2396C21.5283 52.7059 22.2219 52.8986 22.881 52.8986C24.5227 52.8986 25.9333 51.6885 27.4325 50.4514C32.2807 46.451 35.9303 43.2638 40.0424 43.2638H40.1118C44.2239 43.2638 47.8774 46.4472 52.7218 50.4514C54.221 51.6885 55.6315 52.8986 57.2732 52.8986C57.9323 52.8986 58.626 52.7021 59.3775 52.2396C62.2602 50.4514 60.8381 46.8788 59.7436 45.1446H59.7475Z" fill="black"/>
</svg>
