<svg width="64" height="64" viewBox="0 0 64 64" fill="none" xmlns="http://www.w3.org/2000/svg">
<path fill-rule="evenodd" clip-rule="evenodd" d="M35.5758 21.9699C35.7117 21.0186 34.5582 20.4419 33.8787 21.1214L23.7071 31.293C23.0772 31.923 23.5233 33.0001 24.4142 33.0001H28.5613C29.1698 33.0001 29.6373 33.5391 29.5512 34.1415L28.4243 42.0302C28.2884 42.9816 29.4418 43.5583 30.1213 42.8788L40.2929 32.7072C40.9229 32.0772 40.4767 31.0001 39.5858 31.0001L35.4387 31.0001C34.8302 31.0001 34.3627 30.4611 34.4488 29.8587L35.5758 21.9699Z" fill="black" fill-opacity="0.5"/>
<path fill-rule="evenodd" clip-rule="evenodd" d="M45.3211 7.36567C41.3596 5.219 36.8222 4 32 4C16.536 4 4 16.536 4 32C4 36.8221 5.21899 41.3596 7.36562 45.321L8.84631 43.8403C7.02666 40.2891 6 36.2645 6 32C6 17.6406 17.6406 6 32 6C36.2645 6 40.2892 7.02668 43.8404 8.84635L45.3211 7.36567ZM20.1601 55.1539C23.7112 56.9734 27.7357 58 32 58C46.3594 58 58 46.3594 58 32C58 27.7357 56.9734 23.7113 55.1539 20.1602L56.6346 18.6795C58.7811 22.6408 60 27.1781 60 32C60 47.464 47.464 60 32 60C27.178 60 22.6407 58.7811 18.6794 56.6346L20.1601 55.1539Z" fill="black" fill-opacity="0.25"/>
</svg>
